{
	"patcher" : 	{
		"fileversion" : 1,
		"appversion" : 		{
			"major" : 8,
			"minor" : 6,
			"revision" : 1,
			"architecture" : "x64",
			"modernui" : 1
		}
,
		"classnamespace" : "box",
		"rect" : [ 199.0, 177.0, 992.0, 771.0 ],
		"bglocked" : 0,
		"openinpresentation" : 0,
		"default_fontsize" : 12.0,
		"default_fontface" : 0,
		"default_fontname" : "Arial",
		"gridonopen" : 1,
		"gridsize" : [ 15.0, 15.0 ],
		"gridsnaponopen" : 1,
		"objectsnaponopen" : 1,
		"statusbarvisible" : 2,
		"toolbarvisible" : 1,
		"lefttoolbarpinned" : 0,
		"toptoolbarpinned" : 0,
		"righttoolbarpinned" : 0,
		"bottomtoolbarpinned" : 0,
		"toolbars_unpinned_last_save" : 0,
		"tallnewobj" : 0,
		"boxanimatetime" : 200,
		"enablehscroll" : 1,
		"enablevscroll" : 1,
		"devicewidth" : 0.0,
		"description" : "",
		"digest" : "",
		"tags" : "",
		"style" : "",
		"subpatcher_template" : "",
		"showrootpatcherontab" : 0,
		"showontab" : 0,
		"assistshowspatchername" : 0,
		"boxes" : [ 			{
				"box" : 				{
					"id" : "obj-3",
					"maxclass" : "message",
					"numinlets" : 2,
					"numoutlets" : 1,
					"outlettype" : [ "" ],
					"patching_rect" : [ 359.0, 346.0, 162.0, 22.0 ],
					"text" : "jsargs stac.mc.latencydelay~"
				}

			}
, 			{
				"box" : 				{
					"border" : 0,
					"filename" : "helpname.js",
					"id" : "obj-55",
					"ignoreclick" : 1,
					"jsarguments" : [ "stac.mc.latencydelay~" ],
					"maxclass" : "jsui",
					"numinlets" : 1,
					"numoutlets" : 1,
					"outlettype" : [ "" ],
					"parameter_enable" : 0,
					"patching_rect" : [ 10.0, 10.0, 465.44000244140625, 57.599853515625 ]
				}

			}
, 			{
				"box" : 				{
					"border" : 0,
					"filename" : "helpdetails.js",
					"id" : "obj-53",
					"ignoreclick" : 1,
					"jsarguments" : [ "stac.mc.latencydelay~" ],
					"maxclass" : "jsui",
					"numinlets" : 1,
					"numoutlets" : 1,
					"outlettype" : [ "" ],
					"parameter_enable" : 0,
					"patching_rect" : [ 327.0, 86.0, 438.0, 108.0 ]
				}

			}
, 			{
				"box" : 				{
					"fontsize" : 14.0,
					"id" : "obj-52",
					"maxclass" : "newobj",
					"numinlets" : 0,
					"numoutlets" : 0,
					"patcher" : 					{
						"fileversion" : 1,
						"appversion" : 						{
							"major" : 8,
							"minor" : 6,
							"revision" : 1,
							"architecture" : "x64",
							"modernui" : 1
						}
,
						"classnamespace" : "box",
						"rect" : [ 0.0, 26.0, 992.0, 745.0 ],
						"bglocked" : 0,
						"openinpresentation" : 0,
						"default_fontsize" : 12.0,
						"default_fontface" : 0,
						"default_fontname" : "Arial",
						"gridonopen" : 1,
						"gridsize" : [ 15.0, 15.0 ],
						"gridsnaponopen" : 1,
						"objectsnaponopen" : 1,
						"statusbarvisible" : 2,
						"toolbarvisible" : 1,
						"lefttoolbarpinned" : 0,
						"toptoolbarpinned" : 0,
						"righttoolbarpinned" : 0,
						"bottomtoolbarpinned" : 0,
						"toolbars_unpinned_last_save" : 0,
						"tallnewobj" : 0,
						"boxanimatetime" : 200,
						"enablehscroll" : 1,
						"enablevscroll" : 1,
						"devicewidth" : 0.0,
						"description" : "",
						"digest" : "",
						"tags" : "",
						"style" : "",
						"subpatcher_template" : "",
						"showontab" : 2,
						"assistshowspatchername" : 0,
						"boxes" : [  ],
						"lines" : [  ]
					}
,
					"patching_rect" : [ 244.0, 246.0, 28.0, 24.0 ],
					"saved_object_attributes" : 					{
						"description" : "",
						"digest" : "",
						"globalpatchername" : "",
						"tags" : ""
					}
,
					"text" : "p ?"
				}

			}
, 			{
				"box" : 				{
					"id" : "obj-1",
					"maxclass" : "newobj",
					"numinlets" : 0,
					"numoutlets" : 0,
					"patcher" : 					{
						"fileversion" : 1,
						"appversion" : 						{
							"major" : 8,
							"minor" : 6,
							"revision" : 1,
							"architecture" : "x64",
							"modernui" : 1
						}
,
						"classnamespace" : "box",
						"rect" : [ 199.0, 203.0, 992.0, 745.0 ],
						"bglocked" : 0,
						"openinpresentation" : 0,
						"default_fontsize" : 12.0,
						"default_fontface" : 0,
						"default_fontname" : "Arial",
						"gridonopen" : 1,
						"gridsize" : [ 15.0, 15.0 ],
						"gridsnaponopen" : 1,
						"objectsnaponopen" : 1,
						"statusbarvisible" : 2,
						"toolbarvisible" : 1,
						"lefttoolbarpinned" : 0,
						"toptoolbarpinned" : 0,
						"righttoolbarpinned" : 0,
						"bottomtoolbarpinned" : 0,
						"toolbars_unpinned_last_save" : 0,
						"tallnewobj" : 0,
						"boxanimatetime" : 200,
						"enablehscroll" : 1,
						"enablevscroll" : 1,
						"devicewidth" : 0.0,
						"description" : "",
						"digest" : "",
						"tags" : "",
						"style" : "",
						"subpatcher_template" : "",
						"showontab" : 1,
						"assistshowspatchername" : 0,
						"boxes" : [ 							{
								"box" : 								{
									"format" : 6,
									"id" : "obj-29",
									"maxclass" : "flonum",
									"numinlets" : 1,
									"numoutlets" : 2,
									"outlettype" : [ "", "bang" ],
									"parameter_enable" : 0,
									"patching_rect" : [ 168.0, 492.0, 50.0, 22.0 ]
								}

							}
, 							{
								"box" : 								{
									"id" : "obj-27",
									"maxclass" : "message",
									"numinlets" : 2,
									"numoutlets" : 1,
									"outlettype" : [ "" ],
									"patching_rect" : [ 168.0, 521.0, 75.0, 22.0 ],
									"text" : "tolerance $1"
								}

							}
, 							{
								"box" : 								{
									"id" : "obj-33",
									"maxclass" : "newobj",
									"numinlets" : 1,
									"numoutlets" : 1,
									"outlettype" : [ "" ],
									"patching_rect" : [ 10.0, 433.0, 70.0, 22.0 ],
									"text" : "loadmess 1"
								}

							}
, 							{
								"box" : 								{
									"id" : "obj-30",
									"maxclass" : "newobj",
									"numinlets" : 2,
									"numoutlets" : 1,
									"outlettype" : [ "int" ],
									"patching_rect" : [ 10.0, 486.0, 29.5, 22.0 ],
									"text" : "+ 1"
								}

							}
, 							{
								"box" : 								{
									"id" : "obj-28",
									"items" : [ "no-compensation", ",", "compensated" ],
									"maxclass" : "umenu",
									"numinlets" : 1,
									"numoutlets" : 3,
									"outlettype" : [ "int", "", "" ],
									"parameter_enable" : 0,
									"patching_rect" : [ 10.0, 459.0, 100.0, 22.0 ]
								}

							}
, 							{
								"box" : 								{
									"id" : "obj-10",
									"maxclass" : "newobj",
									"numinlets" : 2,
									"numoutlets" : 2,
									"outlettype" : [ "signal", "signal" ],
									"patching_rect" : [ 10.0, 515.0, 59.0, 22.0 ],
									"text" : "gate~ 2 2"
								}

							}
, 							{
								"box" : 								{
									"bubble" : 1,
									"bubblepoint" : 0.57,
									"bubbleside" : 2,
									"id" : "obj-24",
									"linecount" : 5,
									"maxclass" : "comment",
									"numinlets" : 1,
									"numoutlets" : 0,
									"patching_rect" : [ 125.0, 400.0, 112.0, 93.0 ],
									"text" : "The @tolerance attribute lets you specify how tight you need to reach the max delay."
								}

							}
, 							{
								"box" : 								{
									"id" : "obj-8",
									"linecount" : 5,
									"maxclass" : "comment",
									"numinlets" : 1,
									"numoutlets" : 0,
									"patching_rect" : [ 290.0, 155.0, 242.0, 74.0 ],
									"text" : "Keeps all processing chain in synch with additional latenc-compensation delays.\nThe stac.mc.latencydelay~ abstraction will compute the minimal necessary delay  for each chain based on the highest latency."
								}

							}
, 							{
								"box" : 								{
									"border" : 0,
									"filename" : "helpdetails.js",
									"id" : "obj-53",
									"ignoreclick" : 1,
									"jsarguments" : [ "stac.mc.latencydelay~" ],
									"maxclass" : "jsui",
									"numinlets" : 1,
									"numoutlets" : 1,
									"outlettype" : [ "" ],
									"parameter_enable" : 0,
									"patching_rect" : [ 10.0, 10.0, 438.0, 108.0 ]
								}

							}
, 							{
								"box" : 								{
									"bubble" : 1,
									"id" : "obj-23",
									"linecount" : 2,
									"maxclass" : "comment",
									"numinlets" : 1,
									"numoutlets" : 0,
									"patching_rect" : [ 714.0, 415.0, 178.0, 37.0 ],
									"text" : "arg: index of the signal path branch we want to process."
								}

							}
, 							{
								"box" : 								{
									"bubble" : 1,
									"id" : "obj-18",
									"linecount" : 2,
									"maxclass" : "comment",
									"numinlets" : 1,
									"numoutlets" : 0,
									"patching_rect" : [ 701.0, 564.0, 178.0, 37.0 ],
									"text" : "arg: index of the signal path branch we want to process."
								}

							}
, 							{
								"box" : 								{
									"id" : "obj-13",
									"maxclass" : "number",
									"numinlets" : 1,
									"numoutlets" : 2,
									"outlettype" : [ "", "bang" ],
									"parameter_enable" : 0,
									"patching_rect" : [ 587.0, 389.0, 50.0, 22.0 ]
								}

							}
, 							{
								"box" : 								{
									"id" : "obj-104",
									"maxclass" : "newobj",
									"numinlets" : 1,
									"numoutlets" : 0,
									"patching_rect" : [ 587.0, 422.0, 125.0, 22.0 ],
									"text" : "stac.mc.ChainDelay 3"
								}

							}
, 							{
								"box" : 								{
									"id" : "obj-98",
									"maxclass" : "newobj",
									"numinlets" : 2,
									"numoutlets" : 1,
									"outlettype" : [ "multichannelsignal" ],
									"patching_rect" : [ 562.0, 571.0, 137.0, 22.0 ],
									"text" : "stac.mc.latencydelay~ 3"
								}

							}
, 							{
								"box" : 								{
									"id" : "obj-97",
									"maxclass" : "newobj",
									"numinlets" : 1,
									"numoutlets" : 1,
									"outlettype" : [ "int" ],
									"patching_rect" : [ 587.0, 357.0, 148.0, 22.0 ],
									"text" : "stac.pfft.getlatency 1024 4"
								}

							}
, 							{
								"box" : 								{
									"id" : "obj-85",
									"maxclass" : "newobj",
									"numinlets" : 1,
									"numoutlets" : 1,
									"outlettype" : [ "int" ],
									"patching_rect" : [ 346.0, 431.0, 148.0, 22.0 ],
									"text" : "stac.pfft.getlatency 4096 4"
								}

							}
, 							{
								"box" : 								{
									"id" : "obj-11",
									"maxclass" : "newobj",
									"numinlets" : 1,
									"numoutlets" : 1,
									"outlettype" : [ "" ],
									"patching_rect" : [ 435.0, 273.0, 87.0, 22.0 ],
									"text" : "loadmess 1.33"
								}

							}
, 							{
								"box" : 								{
									"id" : "obj-6",
									"maxclass" : "comment",
									"numinlets" : 1,
									"numoutlets" : 0,
									"patching_rect" : [ 374.0, 301.0, 59.0, 20.0 ],
									"text" : "pitch shift"
								}

							}
, 							{
								"box" : 								{
									"fontname" : "Lato",
									"fontsize" : 13.0,
									"format" : 6,
									"id" : "obj-46",
									"maxclass" : "flonum",
									"minimum" : 0.0,
									"numinlets" : 1,
									"numoutlets" : 2,
									"outlettype" : [ "", "bang" ],
									"parameter_enable" : 0,
									"patching_rect" : [ 435.0, 299.0, 46.0, 24.0 ]
								}

							}
, 							{
								"box" : 								{
									"fontname" : "Arial",
									"fontsize" : 13.0,
									"id" : "obj-7",
									"maxclass" : "newobj",
									"numinlets" : 2,
									"numoutlets" : 1,
									"outlettype" : [ "signal" ],
									"patching_rect" : [ 289.0, 327.0, 165.0, 23.0 ],
									"text" : "pfft~ gizmo_loadme 4096 4"
								}

							}
, 							{
								"box" : 								{
									"bubble" : 1,
									"bubbleside" : 2,
									"id" : "obj-32",
									"linecount" : 2,
									"maxclass" : "comment",
									"numinlets" : 1,
									"numoutlets" : 0,
									"patching_rect" : [ 344.0, 379.0, 152.0, 52.0 ],
									"text" : "Computes delay induced by the above FFT."
								}

							}
, 							{
								"box" : 								{
									"bubble" : 1,
									"id" : "obj-31",
									"maxclass" : "comment",
									"numinlets" : 1,
									"numoutlets" : 0,
									"patching_rect" : [ 634.0, 389.0, 125.0, 24.0 ],
									"text" : "FFT-induced delay"
								}

							}
, 							{
								"box" : 								{
									"bubble" : 1,
									"id" : "obj-26",
									"maxclass" : "comment",
									"numinlets" : 1,
									"numoutlets" : 0,
									"patching_rect" : [ 756.0, 491.0, 117.0, 24.0 ],
									"text" : "some extra delay"
								}

							}
, 							{
								"box" : 								{
									"id" : "obj-12",
									"maxclass" : "newobj",
									"numinlets" : 1,
									"numoutlets" : 1,
									"outlettype" : [ "" ],
									"patching_rect" : [ 707.0, 272.0, 80.0, 22.0 ],
									"text" : "loadmess 1.5"
								}

							}
, 							{
								"box" : 								{
									"id" : "obj-15",
									"maxclass" : "comment",
									"numinlets" : 1,
									"numoutlets" : 0,
									"patching_rect" : [ 646.0, 301.0, 59.0, 20.0 ],
									"text" : "pitch shift"
								}

							}
, 							{
								"box" : 								{
									"fontname" : "Lato",
									"fontsize" : 13.0,
									"format" : 6,
									"id" : "obj-16",
									"maxclass" : "flonum",
									"minimum" : 0.0,
									"numinlets" : 1,
									"numoutlets" : 2,
									"outlettype" : [ "", "bang" ],
									"parameter_enable" : 0,
									"patching_rect" : [ 707.0, 299.0, 46.0, 24.0 ]
								}

							}
, 							{
								"box" : 								{
									"fontname" : "Arial",
									"fontsize" : 13.0,
									"id" : "obj-20",
									"maxclass" : "newobj",
									"numinlets" : 2,
									"numoutlets" : 1,
									"outlettype" : [ "signal" ],
									"patching_rect" : [ 561.0, 327.0, 165.0, 23.0 ],
									"text" : "pfft~ gizmo_loadme 1024 4"
								}

							}
, 							{
								"box" : 								{
									"id" : "obj-25",
									"maxclass" : "newobj",
									"numinlets" : 1,
									"numoutlets" : 1,
									"outlettype" : [ "signal" ],
									"patcher" : 									{
										"fileversion" : 1,
										"appversion" : 										{
											"major" : 8,
											"minor" : 6,
											"revision" : 1,
											"architecture" : "x64",
											"modernui" : 1
										}
,
										"classnamespace" : "box",
										"rect" : [ 59.0, 106.0, 363.0, 276.0 ],
										"bglocked" : 0,
										"openinpresentation" : 0,
										"default_fontsize" : 12.0,
										"default_fontface" : 0,
										"default_fontname" : "Arial",
										"gridonopen" : 1,
										"gridsize" : [ 15.0, 15.0 ],
										"gridsnaponopen" : 1,
										"objectsnaponopen" : 1,
										"statusbarvisible" : 2,
										"toolbarvisible" : 1,
										"lefttoolbarpinned" : 0,
										"toptoolbarpinned" : 0,
										"righttoolbarpinned" : 0,
										"bottomtoolbarpinned" : 0,
										"toolbars_unpinned_last_save" : 0,
										"tallnewobj" : 0,
										"boxanimatetime" : 200,
										"enablehscroll" : 1,
										"enablevscroll" : 1,
										"devicewidth" : 0.0,
										"description" : "",
										"digest" : "",
										"tags" : "",
										"style" : "",
										"subpatcher_template" : "",
										"assistshowspatchername" : 0,
										"boxes" : [ 											{
												"box" : 												{
													"id" : "obj-17",
													"maxclass" : "newobj",
													"numinlets" : 2,
													"numoutlets" : 1,
													"outlettype" : [ "signal" ],
													"patching_rect" : [ 50.0, 179.0, 30.0, 22.0 ],
													"text" : "*~ 3"
												}

											}
, 											{
												"box" : 												{
													"id" : "obj-15",
													"maxclass" : "newobj",
													"numinlets" : 1,
													"numoutlets" : 1,
													"outlettype" : [ "" ],
													"patching_rect" : [ 207.0, 109.0, 70.0, 22.0 ],
													"text" : "loadmess 3"
												}

											}
, 											{
												"box" : 												{
													"id" : "obj-14",
													"maxclass" : "newobj",
													"numinlets" : 1,
													"numoutlets" : 1,
													"outlettype" : [ "signal" ],
													"patching_rect" : [ 98.0, 107.5, 39.0, 22.0 ],
													"text" : "mtof~"
												}

											}
, 											{
												"box" : 												{
													"id" : "obj-11",
													"maxclass" : "newobj",
													"numinlets" : 6,
													"numoutlets" : 1,
													"outlettype" : [ "signal" ],
													"patching_rect" : [ 98.0, 76.5, 121.0, 22.0 ],
													"text" : "scale~ -1. 1. 40. 100."
												}

											}
, 											{
												"box" : 												{
													"id" : "obj-10",
													"maxclass" : "newobj",
													"numinlets" : 2,
													"numoutlets" : 1,
													"outlettype" : [ "signal" ],
													"patching_rect" : [ 98.0, 48.0, 63.0, 22.0 ],
													"text" : "cycle~ 4.6"
												}

											}
, 											{
												"box" : 												{
													"format" : 6,
													"id" : "obj-9",
													"maxclass" : "flonum",
													"numinlets" : 1,
													"numoutlets" : 2,
													"outlettype" : [ "", "bang" ],
													"parameter_enable" : 0,
													"patching_rect" : [ 154.0, 107.5, 50.0, 22.0 ]
												}

											}
, 											{
												"box" : 												{
													"fontname" : "Lato",
													"fontsize" : 12.0,
													"id" : "obj-49",
													"maxclass" : "newobj",
													"numinlets" : 3,
													"numoutlets" : 1,
													"outlettype" : [ "signal" ],
													"patcher" : 													{
														"fileversion" : 1,
														"appversion" : 														{
															"major" : 8,
															"minor" : 6,
															"revision" : 1,
															"architecture" : "x64",
															"modernui" : 1
														}
,
														"classnamespace" : "dsp.gen",
														"rect" : [ 134.0, 159.0, 642.0, 705.0 ],
														"bglocked" : 0,
														"openinpresentation" : 0,
														"default_fontsize" : 12.0,
														"default_fontface" : 0,
														"default_fontname" : "Lato",
														"gridonopen" : 1,
														"gridsize" : [ 15.0, 15.0 ],
														"gridsnaponopen" : 1,
														"objectsnaponopen" : 1,
														"statusbarvisible" : 2,
														"toolbarvisible" : 1,
														"lefttoolbarpinned" : 0,
														"toptoolbarpinned" : 0,
														"righttoolbarpinned" : 0,
														"bottomtoolbarpinned" : 0,
														"toolbars_unpinned_last_save" : 0,
														"tallnewobj" : 0,
														"boxanimatetime" : 200,
														"enablehscroll" : 1,
														"enablevscroll" : 1,
														"devicewidth" : 0.0,
														"description" : "",
														"digest" : "",
														"tags" : "",
														"style" : "",
														"subpatcher_template" : "",
														"assistshowspatchername" : 0,
														"boxes" : [ 															{
																"box" : 																{
																	"code" : "cf = in1;\r\nQ = in2;\r\n\r\nomega = cf * twopi/samplerate;\nsn = sin(omega);\ncs = cos(omega);\nalpha = sn * 0.5/Q;\r\n\r\nb0 = 1./(1. + alpha);\r\na0 = alpha * b0;\na1 = 0.;\na2 = -alpha * b0;\nb1 = -2. * cs * b0;\nb2 = (1. - alpha) * b0;\r\n\r\nout1 = a0;\r\nout2 = a1;\r\nout3 = a2;\r\nout4 = b1;\r\nout5 = b2;",
																	"fontface" : 0,
																	"fontname" : "<Monospaced>",
																	"fontsize" : 12.0,
																	"id" : "obj-30",
																	"maxclass" : "codebox",
																	"numinlets" : 2,
																	"numoutlets" : 5,
																	"outlettype" : [ "", "", "", "", "" ],
																	"patching_rect" : [ 123.729979999999998, 118.0, 480.0, 504.0 ]
																}

															}
, 															{
																"box" : 																{
																	"id" : "obj-13",
																	"maxclass" : "newobj",
																	"numinlets" : 0,
																	"numoutlets" : 1,
																	"outlettype" : [ "" ],
																	"patching_rect" : [ 217.229980000000012, 64.0, 262.0, 23.0 ],
																	"text" : "in 3 @comment Q @default 0.5 @min 0.000001"
																}

															}
, 															{
																"box" : 																{
																	"id" : "obj-10",
																	"maxclass" : "newobj",
																	"numinlets" : 0,
																	"numoutlets" : 1,
																	"outlettype" : [ "" ],
																	"patching_rect" : [ 123.729979999999998, 9.0, 265.0, 23.0 ],
																	"text" : "in 2 @comment frequency @default 440 @min 0"
																}

															}
, 															{
																"box" : 																{
																	"id" : "obj-8",
																	"maxclass" : "newobj",
																	"numinlets" : 6,
																	"numoutlets" : 1,
																	"outlettype" : [ "" ],
																	"patcher" : 																	{
																		"fileversion" : 1,
																		"appversion" : 																		{
																			"major" : 8,
																			"minor" : 6,
																			"revision" : 1,
																			"architecture" : "x64",
																			"modernui" : 1
																		}
,
																		"classnamespace" : "dsp.gen",
																		"rect" : [ 106.0, 129.0, 543.0, 636.0 ],
																		"bglocked" : 0,
																		"openinpresentation" : 0,
																		"default_fontsize" : 12.0,
																		"default_fontface" : 0,
																		"default_fontname" : "Arial",
																		"gridonopen" : 1,
																		"gridsize" : [ 15.0, 15.0 ],
																		"gridsnaponopen" : 1,
																		"objectsnaponopen" : 1,
																		"statusbarvisible" : 2,
																		"toolbarvisible" : 1,
																		"lefttoolbarpinned" : 0,
																		"toptoolbarpinned" : 0,
																		"righttoolbarpinned" : 0,
																		"bottomtoolbarpinned" : 0,
																		"toolbars_unpinned_last_save" : 0,
																		"tallnewobj" : 0,
																		"boxanimatetime" : 200,
																		"enablehscroll" : 1,
																		"enablevscroll" : 1,
																		"devicewidth" : 0.0,
																		"description" : "",
																		"digest" : "",
																		"tags" : "",
																		"style" : "",
																		"subpatcher_template" : "",
																		"assistshowspatchername" : 0,
																		"boxes" : [ 																			{
																				"box" : 																				{
																					"fontname" : "Lato",
																					"fontsize" : 12.0,
																					"id" : "obj-2",
																					"maxclass" : "comment",
																					"numinlets" : 1,
																					"numoutlets" : 0,
																					"patching_rect" : [ 90.5, 46.0, 264.0, 21.0 ],
																					"text" : "Direct form of a two-pole, two-zero filter"
																				}

																			}
, 																			{
																				"box" : 																				{
																					"id" : "obj-12",
																					"maxclass" : "comment",
																					"numinlets" : 1,
																					"numoutlets" : 0,
																					"patching_rect" : [ 325.5, 138.0, 30.0, 20.0 ],
																					"text" : "x2"
																				}

																			}
, 																			{
																				"box" : 																				{
																					"id" : "obj-24",
																					"maxclass" : "comment",
																					"numinlets" : 1,
																					"numoutlets" : 0,
																					"patching_rect" : [ 220.0, 100.0, 30.0, 20.0 ],
																					"text" : "x1"
																				}

																			}
, 																			{
																				"box" : 																				{
																					"id" : "obj-9",
																					"maxclass" : "comment",
																					"numinlets" : 1,
																					"numoutlets" : 0,
																					"patching_rect" : [ 220.0, 360.0, 30.0, 20.0 ],
																					"text" : "y2"
																				}

																			}
, 																			{
																				"box" : 																				{
																					"id" : "obj-8",
																					"maxclass" : "comment",
																					"numinlets" : 1,
																					"numoutlets" : 0,
																					"patching_rect" : [ 114.5, 322.0, 30.0, 20.0 ],
																					"text" : "y1"
																				}

																			}
, 																			{
																				"box" : 																				{
																					"fontname" : "Lato",
																					"fontsize" : 12.0,
																					"id" : "obj-6",
																					"maxclass" : "comment",
																					"numinlets" : 1,
																					"numoutlets" : 0,
																					"patching_rect" : [ 292.0, 329.0, 140.0, 21.0 ],
																					"text" : "Previous output history"
																				}

																			}
, 																			{
																				"box" : 																				{
																					"fontname" : "Lato",
																					"fontsize" : 12.0,
																					"id" : "obj-5",
																					"maxclass" : "comment",
																					"numinlets" : 1,
																					"numoutlets" : 0,
																					"patching_rect" : [ 282.0, 100.0, 140.0, 21.0 ],
																					"text" : "Previous input history"
																				}

																			}
, 																			{
																				"box" : 																				{
																					"fontname" : "Lato",
																					"fontsize" : 12.0,
																					"id" : "obj-18",
																					"maxclass" : "newobj",
																					"numinlets" : 2,
																					"numoutlets" : 1,
																					"outlettype" : [ "" ],
																					"patching_rect" : [ 168.5, 466.0, 32.5, 23.0 ],
																					"text" : "*"
																				}

																			}
, 																			{
																				"box" : 																				{
																					"fontname" : "Lato",
																					"fontsize" : 12.0,
																					"id" : "obj-19",
																					"maxclass" : "newobj",
																					"numinlets" : 1,
																					"numoutlets" : 1,
																					"outlettype" : [ "" ],
																					"patching_rect" : [ 168.5, 360.0, 47.0, 23.0 ],
																					"text" : "history"
																				}

																			}
, 																			{
																				"box" : 																				{
																					"fontname" : "Lato",
																					"fontsize" : 12.0,
																					"id" : "obj-20",
																					"maxclass" : "newobj",
																					"numinlets" : 0,
																					"numoutlets" : 1,
																					"outlettype" : [ "" ],
																					"patching_rect" : [ 182.0, 433.0, 179.0, 23.0 ],
																					"text" : "in 6 @comment b2 @default 0.2"
																				}

																			}
, 																			{
																				"box" : 																				{
																					"fontname" : "Lato",
																					"fontsize" : 12.0,
																					"id" : "obj-21",
																					"maxclass" : "newobj",
																					"numinlets" : 2,
																					"numoutlets" : 1,
																					"outlettype" : [ "" ],
																					"patching_rect" : [ 63.5, 466.0, 32.5, 23.0 ],
																					"text" : "*"
																				}

																			}
, 																			{
																				"box" : 																				{
																					"fontname" : "Lato",
																					"fontsize" : 12.0,
																					"id" : "obj-22",
																					"maxclass" : "newobj",
																					"numinlets" : 1,
																					"numoutlets" : 1,
																					"outlettype" : [ "" ],
																					"patching_rect" : [ 63.5, 322.0, 47.0, 23.0 ],
																					"text" : "history"
																				}

																			}
, 																			{
																				"box" : 																				{
																					"fontname" : "Lato",
																					"fontsize" : 12.0,
																					"id" : "obj-23",
																					"maxclass" : "newobj",
																					"numinlets" : 0,
																					"numoutlets" : 1,
																					"outlettype" : [ "" ],
																					"patching_rect" : [ 77.0, 396.0, 179.0, 23.0 ],
																					"text" : "in 5 @comment b1 @default 0.2"
																				}

																			}
, 																			{
																				"box" : 																				{
																					"fontname" : "Lato",
																					"fontsize" : 12.0,
																					"id" : "obj-15",
																					"maxclass" : "newobj",
																					"numinlets" : 2,
																					"numoutlets" : 1,
																					"outlettype" : [ "" ],
																					"patching_rect" : [ 275.0, 257.0, 32.5, 23.0 ],
																					"text" : "*"
																				}

																			}
, 																			{
																				"box" : 																				{
																					"fontname" : "Lato",
																					"fontsize" : 12.0,
																					"id" : "obj-16",
																					"maxclass" : "newobj",
																					"numinlets" : 1,
																					"numoutlets" : 1,
																					"outlettype" : [ "" ],
																					"patching_rect" : [ 275.0, 135.0, 47.0, 23.0 ],
																					"text" : "history"
																				}

																			}
, 																			{
																				"box" : 																				{
																					"fontname" : "Lato",
																					"fontsize" : 12.0,
																					"id" : "obj-17",
																					"maxclass" : "newobj",
																					"numinlets" : 0,
																					"numoutlets" : 1,
																					"outlettype" : [ "" ],
																					"patching_rect" : [ 288.5, 227.0, 179.0, 23.0 ],
																					"text" : "in 4 @comment a2 @default 0.1"
																				}

																			}
, 																			{
																				"box" : 																				{
																					"fontname" : "Lato",
																					"fontsize" : 12.0,
																					"id" : "obj-14",
																					"maxclass" : "newobj",
																					"numinlets" : 2,
																					"numoutlets" : 1,
																					"outlettype" : [ "" ],
																					"patching_rect" : [ 170.0, 257.0, 32.5, 23.0 ],
																					"text" : "*"
																				}

																			}
, 																			{
																				"box" : 																				{
																					"fontname" : "Lato",
																					"fontsize" : 12.0,
																					"id" : "obj-13",
																					"maxclass" : "newobj",
																					"numinlets" : 1,
																					"numoutlets" : 1,
																					"outlettype" : [ "" ],
																					"patching_rect" : [ 170.0, 100.0, 47.0, 23.0 ],
																					"text" : "history"
																				}

																			}
, 																			{
																				"box" : 																				{
																					"fontname" : "Lato",
																					"fontsize" : 12.0,
																					"id" : "obj-11",
																					"maxclass" : "newobj",
																					"numinlets" : 2,
																					"numoutlets" : 1,
																					"outlettype" : [ "" ],
																					"patching_rect" : [ 50.0, 511.0, 32.5, 23.0 ],
																					"text" : "-"
																				}

																			}
, 																			{
																				"box" : 																				{
																					"fontname" : "Lato",
																					"fontsize" : 12.0,
																					"id" : "obj-10",
																					"maxclass" : "newobj",
																					"numinlets" : 2,
																					"numoutlets" : 1,
																					"outlettype" : [ "" ],
																					"patching_rect" : [ 50.0, 257.0, 32.5, 23.0 ],
																					"text" : "*"
																				}

																			}
, 																			{
																				"box" : 																				{
																					"fontname" : "Lato",
																					"fontsize" : 12.0,
																					"id" : "obj-4",
																					"maxclass" : "newobj",
																					"numinlets" : 0,
																					"numoutlets" : 1,
																					"outlettype" : [ "" ],
																					"patching_rect" : [ 183.5, 198.0, 179.0, 23.0 ],
																					"text" : "in 3 @comment a1 @default 0.1"
																				}

																			}
, 																			{
																				"box" : 																				{
																					"fontname" : "Lato",
																					"fontsize" : 12.0,
																					"id" : "obj-3",
																					"maxclass" : "newobj",
																					"numinlets" : 0,
																					"numoutlets" : 1,
																					"outlettype" : [ "" ],
																					"patching_rect" : [ 63.5, 163.0, 179.0, 23.0 ],
																					"text" : "in 2 @comment a0 @default 0.9"
																				}

																			}
, 																			{
																				"box" : 																				{
																					"id" : "obj-1",
																					"maxclass" : "newobj",
																					"numinlets" : 0,
																					"numoutlets" : 1,
																					"outlettype" : [ "" ],
																					"patching_rect" : [ 50.0, 46.0, 30.0, 22.0 ],
																					"text" : "in 1"
																				}

																			}
, 																			{
																				"box" : 																				{
																					"id" : "obj-7",
																					"maxclass" : "newobj",
																					"numinlets" : 1,
																					"numoutlets" : 0,
																					"patching_rect" : [ 50.0, 548.5, 38.0, 22.0 ],
																					"text" : "out 1"
																				}

																			}
 ],
																		"lines" : [ 																			{
																				"patchline" : 																				{
																					"destination" : [ "obj-10", 0 ],
																					"order" : 1,
																					"source" : [ "obj-1", 0 ]
																				}

																			}
, 																			{
																				"patchline" : 																				{
																					"destination" : [ "obj-13", 0 ],
																					"order" : 0,
																					"source" : [ "obj-1", 0 ]
																				}

																			}
, 																			{
																				"patchline" : 																				{
																					"destination" : [ "obj-11", 0 ],
																					"source" : [ "obj-10", 0 ]
																				}

																			}
, 																			{
																				"patchline" : 																				{
																					"destination" : [ "obj-22", 0 ],
																					"midpoints" : [ 59.5, 541.0, 281.5, 541.0, 281.5, 312.0, 73.0, 312.0 ],
																					"order" : 0,
																					"source" : [ "obj-11", 0 ]
																				}

																			}
, 																			{
																				"patchline" : 																				{
																					"destination" : [ "obj-7", 0 ],
																					"order" : 1,
																					"source" : [ "obj-11", 0 ]
																				}

																			}
, 																			{
																				"patchline" : 																				{
																					"destination" : [ "obj-14", 0 ],
																					"order" : 1,
																					"source" : [ "obj-13", 0 ]
																				}

																			}
, 																			{
																				"patchline" : 																				{
																					"destination" : [ "obj-16", 0 ],
																					"order" : 0,
																					"source" : [ "obj-13", 0 ]
																				}

																			}
, 																			{
																				"patchline" : 																				{
																					"destination" : [ "obj-11", 0 ],
																					"midpoints" : [ 179.5, 293.5, 59.5, 293.5 ],
																					"source" : [ "obj-14", 0 ]
																				}

																			}
, 																			{
																				"patchline" : 																				{
																					"destination" : [ "obj-11", 0 ],
																					"midpoints" : [ 284.5, 294.5, 59.5, 294.5 ],
																					"source" : [ "obj-15", 0 ]
																				}

																			}
, 																			{
																				"patchline" : 																				{
																					"destination" : [ "obj-15", 0 ],
																					"source" : [ "obj-16", 0 ]
																				}

																			}
, 																			{
																				"patchline" : 																				{
																					"destination" : [ "obj-15", 1 ],
																					"source" : [ "obj-17", 0 ]
																				}

																			}
, 																			{
																				"patchline" : 																				{
																					"destination" : [ "obj-11", 1 ],
																					"midpoints" : [ 178.0, 498.0, 73.0, 498.0 ],
																					"source" : [ "obj-18", 0 ]
																				}

																			}
, 																			{
																				"patchline" : 																				{
																					"destination" : [ "obj-18", 0 ],
																					"source" : [ "obj-19", 0 ]
																				}

																			}
, 																			{
																				"patchline" : 																				{
																					"destination" : [ "obj-18", 1 ],
																					"source" : [ "obj-20", 0 ]
																				}

																			}
, 																			{
																				"patchline" : 																				{
																					"destination" : [ "obj-11", 1 ],
																					"midpoints" : [ 73.0, 498.5, 73.0, 498.5 ],
																					"source" : [ "obj-21", 0 ]
																				}

																			}
, 																			{
																				"patchline" : 																				{
																					"destination" : [ "obj-19", 0 ],
																					"order" : 0,
																					"source" : [ "obj-22", 0 ]
																				}

																			}
, 																			{
																				"patchline" : 																				{
																					"destination" : [ "obj-21", 0 ],
																					"order" : 1,
																					"source" : [ "obj-22", 0 ]
																				}

																			}
, 																			{
																				"patchline" : 																				{
																					"destination" : [ "obj-21", 1 ],
																					"source" : [ "obj-23", 0 ]
																				}

																			}
, 																			{
																				"patchline" : 																				{
																					"destination" : [ "obj-10", 1 ],
																					"source" : [ "obj-3", 0 ]
																				}

																			}
, 																			{
																				"patchline" : 																				{
																					"destination" : [ "obj-14", 1 ],
																					"source" : [ "obj-4", 0 ]
																				}

																			}
 ],
																		"editing_bgcolor" : [ 0.9, 0.9, 0.9, 1.0 ]
																	}
,
																	"patching_rect" : [ 9.0, 635.0, 594.59997599999997, 23.0 ],
																	"text" : "gen @title biquad"
																}

															}
, 															{
																"box" : 																{
																	"fontname" : "Lato",
																	"fontsize" : 12.0,
																	"id" : "obj-12",
																	"maxclass" : "newobj",
																	"numinlets" : 1,
																	"numoutlets" : 0,
																	"patching_rect" : [ 9.0, 665.0, 190.0, 23.0 ],
																	"text" : "out 1 @comment \"filtered signal\""
																}

															}
, 															{
																"box" : 																{
																	"fontname" : "Lato",
																	"fontsize" : 12.0,
																	"id" : "obj-9",
																	"linecount" : 2,
																	"maxclass" : "newobj",
																	"numinlets" : 0,
																	"numoutlets" : 1,
																	"outlettype" : [ "" ],
																	"patching_rect" : [ 9.0, 9.0, 98.0, 37.0 ],
																	"text" : "in 1 @comment \"input signal\""
																}

															}
 ],
														"lines" : [ 															{
																"patchline" : 																{
																	"destination" : [ "obj-30", 0 ],
																	"source" : [ "obj-10", 0 ]
																}

															}
, 															{
																"patchline" : 																{
																	"destination" : [ "obj-30", 1 ],
																	"source" : [ "obj-13", 0 ]
																}

															}
, 															{
																"patchline" : 																{
																	"destination" : [ "obj-8", 5 ],
																	"source" : [ "obj-30", 4 ]
																}

															}
, 															{
																"patchline" : 																{
																	"destination" : [ "obj-8", 4 ],
																	"source" : [ "obj-30", 3 ]
																}

															}
, 															{
																"patchline" : 																{
																	"destination" : [ "obj-8", 3 ],
																	"source" : [ "obj-30", 2 ]
																}

															}
, 															{
																"patchline" : 																{
																	"destination" : [ "obj-8", 2 ],
																	"source" : [ "obj-30", 1 ]
																}

															}
, 															{
																"patchline" : 																{
																	"destination" : [ "obj-8", 1 ],
																	"source" : [ "obj-30", 0 ]
																}

															}
, 															{
																"patchline" : 																{
																	"destination" : [ "obj-12", 0 ],
																	"source" : [ "obj-8", 0 ]
																}

															}
, 															{
																"patchline" : 																{
																	"destination" : [ "obj-8", 0 ],
																	"source" : [ "obj-9", 0 ]
																}

															}
 ],
														"bgcolor" : [ 0.9, 0.9, 0.9, 0.9 ],
														"editing_bgcolor" : [ 0.9, 0.9, 0.9, 1.0 ]
													}
,
													"patching_rect" : [ 50.0, 134.5, 123.0, 23.0 ],
													"text" : "gen~ @title bandpass"
												}

											}
, 											{
												"box" : 												{
													"comment" : "",
													"id" : "obj-23",
													"index" : 1,
													"maxclass" : "inlet",
													"numinlets" : 0,
													"numoutlets" : 1,
													"outlettype" : [ "signal" ],
													"patching_rect" : [ 50.0, 40.0, 30.0, 30.0 ]
												}

											}
, 											{
												"box" : 												{
													"comment" : "",
													"id" : "obj-24",
													"index" : 1,
													"maxclass" : "outlet",
													"numinlets" : 1,
													"numoutlets" : 0,
													"patching_rect" : [ 50.0, 214.0, 30.0, 30.0 ]
												}

											}
 ],
										"lines" : [ 											{
												"patchline" : 												{
													"destination" : [ "obj-11", 0 ],
													"source" : [ "obj-10", 0 ]
												}

											}
, 											{
												"patchline" : 												{
													"destination" : [ "obj-14", 0 ],
													"source" : [ "obj-11", 0 ]
												}

											}
, 											{
												"patchline" : 												{
													"destination" : [ "obj-49", 1 ],
													"source" : [ "obj-14", 0 ]
												}

											}
, 											{
												"patchline" : 												{
													"destination" : [ "obj-9", 0 ],
													"source" : [ "obj-15", 0 ]
												}

											}
, 											{
												"patchline" : 												{
													"destination" : [ "obj-24", 0 ],
													"source" : [ "obj-17", 0 ]
												}

											}
, 											{
												"patchline" : 												{
													"destination" : [ "obj-49", 0 ],
													"source" : [ "obj-23", 0 ]
												}

											}
, 											{
												"patchline" : 												{
													"destination" : [ "obj-17", 0 ],
													"source" : [ "obj-49", 0 ]
												}

											}
, 											{
												"patchline" : 												{
													"destination" : [ "obj-49", 2 ],
													"source" : [ "obj-9", 0 ]
												}

											}
 ]
									}
,
									"patching_rect" : [ 562.0, 488.0, 67.0, 22.0 ],
									"saved_object_attributes" : 									{
										"description" : "",
										"digest" : "",
										"globalpatchername" : "",
										"tags" : ""
									}
,
									"text" : "p WahWah"
								}

							}
, 							{
								"box" : 								{
									"id" : "obj-22",
									"maxclass" : "newobj",
									"numinlets" : 1,
									"numoutlets" : 1,
									"outlettype" : [ "" ],
									"patching_rect" : [ 680.0, 466.0, 97.0, 22.0 ],
									"text" : "loadmess 12345"
								}

							}
, 							{
								"box" : 								{
									"format" : 6,
									"id" : "obj-21",
									"maxclass" : "flonum",
									"numinlets" : 1,
									"numoutlets" : 2,
									"outlettype" : [ "", "bang" ],
									"parameter_enable" : 0,
									"patching_rect" : [ 680.0, 492.0, 79.0, 22.0 ]
								}

							}
, 							{
								"box" : 								{
									"id" : "obj-19",
									"maxclass" : "newobj",
									"numinlets" : 2,
									"numoutlets" : 1,
									"outlettype" : [ "signal" ],
									"patching_rect" : [ 561.0, 521.0, 118.0, 22.0 ],
									"text" : "delay~ 44100 12345"
								}

							}
, 							{
								"box" : 								{
									"id" : "obj-17",
									"lastchannelcount" : 1,
									"maxclass" : "mc.live.gain~",
									"numinlets" : 1,
									"numoutlets" : 4,
									"orientation" : 1,
									"outlettype" : [ "multichannelsignal", "", "float", "list" ],
									"parameter_enable" : 1,
									"patching_rect" : [ 561.0, 606.0, 136.0, 30.0 ],
									"saved_attribute_attributes" : 									{
										"valueof" : 										{
											"parameter_initial" : [ -12 ],
											"parameter_initial_enable" : 1,
											"parameter_longname" : "mc.live.gain~[2]",
											"parameter_mmax" : 6.0,
											"parameter_mmin" : -70.0,
											"parameter_modmode" : 0,
											"parameter_shortname" : "mc.live.gain~",
											"parameter_type" : 0,
											"parameter_unitstyle" : 4
										}

									}
,
									"showname" : 0,
									"varname" : "mc.live.gain~[2]"
								}

							}
, 							{
								"box" : 								{
									"format" : 6,
									"id" : "obj-9",
									"maxclass" : "flonum",
									"numinlets" : 1,
									"numoutlets" : 2,
									"outlettype" : [ "", "bang" ],
									"parameter_enable" : 0,
									"patching_rect" : [ 407.0, 465.0, 50.0, 22.0 ]
								}

							}
, 							{
								"box" : 								{
									"id" : "obj-5",
									"lastchannelcount" : 1,
									"maxclass" : "mc.live.gain~",
									"numinlets" : 1,
									"numoutlets" : 4,
									"orientation" : 1,
									"outlettype" : [ "multichannelsignal", "", "float", "list" ],
									"parameter_enable" : 1,
									"patching_rect" : [ 289.0, 606.0, 136.0, 30.0 ],
									"saved_attribute_attributes" : 									{
										"valueof" : 										{
											"parameter_initial" : [ -12 ],
											"parameter_initial_enable" : 1,
											"parameter_longname" : "mc.live.gain~[1]",
											"parameter_mmax" : 6.0,
											"parameter_mmin" : -70.0,
											"parameter_modmode" : 0,
											"parameter_shortname" : "mc.live.gain~",
											"parameter_type" : 0,
											"parameter_unitstyle" : 4
										}

									}
,
									"showname" : 0,
									"varname" : "mc.live.gain~[1]"
								}

							}
, 							{
								"box" : 								{
									"id" : "obj-4",
									"maxclass" : "mc.ezdac~",
									"numinlets" : 1,
									"numoutlets" : 0,
									"patching_rect" : [ 50.0, 670.0, 45.0, 45.0 ]
								}

							}
, 							{
								"box" : 								{
									"id" : "obj-3",
									"lastchannelcount" : 1,
									"maxclass" : "mc.live.gain~",
									"numinlets" : 1,
									"numoutlets" : 4,
									"orientation" : 1,
									"outlettype" : [ "multichannelsignal", "", "float", "list" ],
									"parameter_enable" : 1,
									"patching_rect" : [ 50.0, 606.0, 136.0, 30.0 ],
									"saved_attribute_attributes" : 									{
										"valueof" : 										{
											"parameter_initial" : [ -12 ],
											"parameter_initial_enable" : 1,
											"parameter_longname" : "mc.live.gain~",
											"parameter_mmax" : 6.0,
											"parameter_mmin" : -70.0,
											"parameter_modmode" : 0,
											"parameter_shortname" : "mc.live.gain~",
											"parameter_type" : 0,
											"parameter_unitstyle" : 4
										}

									}
,
									"showname" : 0,
									"varname" : "mc.live.gain~"
								}

							}
, 							{
								"box" : 								{
									"args" : [ "@file", "duduk.aif", "@loop", 1 ],
									"bgmode" : 0,
									"border" : 0,
									"clickthrough" : 0,
									"enablehscroll" : 0,
									"enablevscroll" : 0,
									"id" : "obj-2",
									"lockeddragscroll" : 0,
									"lockedsize" : 0,
									"maxclass" : "bpatcher",
									"name" : "demosound.maxpat",
									"numinlets" : 0,
									"numoutlets" : 1,
									"offset" : [ 0.0, 0.0 ],
									"outlettype" : [ "signal" ],
									"patching_rect" : [ 50.0, 149.0, 226.0, 96.0 ],
									"viewvisibility" : 1
								}

							}
, 							{
								"box" : 								{
									"id" : "obj-1",
									"maxclass" : "newobj",
									"numinlets" : 2,
									"numoutlets" : 1,
									"outlettype" : [ "multichannelsignal" ],
									"patching_rect" : [ 289.0, 492.0, 137.0, 22.0 ],
									"text" : "stac.mc.latencydelay~ 2"
								}

							}
, 							{
								"box" : 								{
									"id" : "obj-14",
									"maxclass" : "newobj",
									"numinlets" : 2,
									"numoutlets" : 1,
									"outlettype" : [ "multichannelsignal" ],
									"patching_rect" : [ 50.0, 549.0, 137.0, 22.0 ],
									"text" : "stac.mc.latencydelay~ 1"
								}

							}
 ],
						"lines" : [ 							{
								"patchline" : 								{
									"destination" : [ "obj-5", 0 ],
									"source" : [ "obj-1", 0 ]
								}

							}
, 							{
								"patchline" : 								{
									"destination" : [ "obj-14", 0 ],
									"source" : [ "obj-10", 1 ]
								}

							}
, 							{
								"patchline" : 								{
									"destination" : [ "obj-3", 0 ],
									"midpoints" : [ 19.5, 587.0, 59.5, 587.0 ],
									"source" : [ "obj-10", 0 ]
								}

							}
, 							{
								"patchline" : 								{
									"destination" : [ "obj-46", 0 ],
									"source" : [ "obj-11", 0 ]
								}

							}
, 							{
								"patchline" : 								{
									"destination" : [ "obj-16", 0 ],
									"source" : [ "obj-12", 0 ]
								}

							}
, 							{
								"patchline" : 								{
									"destination" : [ "obj-104", 0 ],
									"source" : [ "obj-13", 0 ]
								}

							}
, 							{
								"patchline" : 								{
									"destination" : [ "obj-3", 0 ],
									"source" : [ "obj-14", 0 ]
								}

							}
, 							{
								"patchline" : 								{
									"destination" : [ "obj-20", 1 ],
									"source" : [ "obj-16", 0 ]
								}

							}
, 							{
								"patchline" : 								{
									"destination" : [ "obj-4", 0 ],
									"midpoints" : [ 570.5, 649.5, 59.5, 649.5 ],
									"source" : [ "obj-17", 0 ]
								}

							}
, 							{
								"patchline" : 								{
									"destination" : [ "obj-98", 0 ],
									"source" : [ "obj-19", 0 ]
								}

							}
, 							{
								"patchline" : 								{
									"destination" : [ "obj-10", 1 ],
									"order" : 2,
									"source" : [ "obj-2", 0 ]
								}

							}
, 							{
								"patchline" : 								{
									"destination" : [ "obj-20", 0 ],
									"midpoints" : [ 59.5, 255.0, 570.5, 255.0 ],
									"order" : 0,
									"source" : [ "obj-2", 0 ]
								}

							}
, 							{
								"patchline" : 								{
									"destination" : [ "obj-7", 0 ],
									"midpoints" : [ 59.5, 263.5, 298.5, 263.5 ],
									"order" : 1,
									"source" : [ "obj-2", 0 ]
								}

							}
, 							{
								"patchline" : 								{
									"destination" : [ "obj-25", 0 ],
									"source" : [ "obj-20", 0 ]
								}

							}
, 							{
								"patchline" : 								{
									"destination" : [ "obj-19", 1 ],
									"order" : 1,
									"source" : [ "obj-21", 0 ]
								}

							}
, 							{
								"patchline" : 								{
									"destination" : [ "obj-98", 1 ],
									"order" : 0,
									"source" : [ "obj-21", 0 ]
								}

							}
, 							{
								"patchline" : 								{
									"destination" : [ "obj-21", 0 ],
									"source" : [ "obj-22", 0 ]
								}

							}
, 							{
								"patchline" : 								{
									"destination" : [ "obj-19", 0 ],
									"source" : [ "obj-25", 0 ]
								}

							}
, 							{
								"patchline" : 								{
									"destination" : [ "obj-14", 1 ],
									"source" : [ "obj-27", 0 ]
								}

							}
, 							{
								"patchline" : 								{
									"destination" : [ "obj-30", 0 ],
									"source" : [ "obj-28", 0 ]
								}

							}
, 							{
								"patchline" : 								{
									"destination" : [ "obj-27", 0 ],
									"source" : [ "obj-29", 0 ]
								}

							}
, 							{
								"patchline" : 								{
									"destination" : [ "obj-4", 0 ],
									"source" : [ "obj-3", 0 ]
								}

							}
, 							{
								"patchline" : 								{
									"destination" : [ "obj-10", 0 ],
									"source" : [ "obj-30", 0 ]
								}

							}
, 							{
								"patchline" : 								{
									"destination" : [ "obj-28", 0 ],
									"source" : [ "obj-33", 0 ]
								}

							}
, 							{
								"patchline" : 								{
									"destination" : [ "obj-7", 1 ],
									"source" : [ "obj-46", 0 ]
								}

							}
, 							{
								"patchline" : 								{
									"destination" : [ "obj-4", 0 ],
									"midpoints" : [ 298.5, 649.5, 59.5, 649.5 ],
									"source" : [ "obj-5", 0 ]
								}

							}
, 							{
								"patchline" : 								{
									"destination" : [ "obj-1", 0 ],
									"source" : [ "obj-7", 0 ]
								}

							}
, 							{
								"patchline" : 								{
									"destination" : [ "obj-9", 0 ],
									"source" : [ "obj-85", 0 ]
								}

							}
, 							{
								"patchline" : 								{
									"destination" : [ "obj-1", 1 ],
									"source" : [ "obj-9", 0 ]
								}

							}
, 							{
								"patchline" : 								{
									"destination" : [ "obj-13", 0 ],
									"source" : [ "obj-97", 0 ]
								}

							}
, 							{
								"patchline" : 								{
									"destination" : [ "obj-17", 0 ],
									"source" : [ "obj-98", 0 ]
								}

							}
 ]
					}
,
					"patching_rect" : [ 74.0, 204.0, 47.0, 22.0 ],
					"saved_object_attributes" : 					{
						"description" : "",
						"digest" : "",
						"globalpatchername" : "",
						"tags" : ""
					}
,
					"text" : "p basic"
				}

			}
 ],
		"lines" : [ 			{
				"patchline" : 				{
					"destination" : [ "obj-53", 0 ],
					"order" : 0,
					"source" : [ "obj-3", 0 ]
				}

			}
, 			{
				"patchline" : 				{
					"destination" : [ "obj-55", 0 ],
					"order" : 1,
					"source" : [ "obj-3", 0 ]
				}

			}
 ],
		"parameters" : 		{
			"obj-1::obj-17" : [ "mc.live.gain~[2]", "mc.live.gain~", 0 ],
			"obj-1::obj-2::obj-21::obj-6" : [ "live.tab[3]", "live.tab[1]", 0 ],
			"obj-1::obj-2::obj-35" : [ "[5]", "Level", 0 ],
			"obj-1::obj-3" : [ "mc.live.gain~", "mc.live.gain~", 0 ],
			"obj-1::obj-5" : [ "mc.live.gain~[1]", "mc.live.gain~", 0 ],
			"parameterbanks" : 			{
				"0" : 				{
					"index" : 0,
					"name" : "",
					"parameters" : [ "-", "-", "-", "-", "-", "-", "-", "-" ]
				}

			}
,
			"inherited_shortname" : 1
		}
,
		"autosave" : 0
	}

}
