{
	"patcher" : 	{
		"fileversion" : 1,
		"appversion" : 		{
			"major" : 8,
			"minor" : 6,
			"revision" : 1,
			"architecture" : "x64",
			"modernui" : 1
		}
,
		"classnamespace" : "box",
		"rect" : [ 59.0, 106.0, 615.0, 447.0 ],
		"bglocked" : 0,
		"openinpresentation" : 0,
		"default_fontsize" : 12.0,
		"default_fontface" : 0,
		"default_fontname" : "Arial",
		"gridonopen" : 1,
		"gridsize" : [ 15.0, 15.0 ],
		"gridsnaponopen" : 1,
		"objectsnaponopen" : 1,
		"statusbarvisible" : 2,
		"toolbarvisible" : 1,
		"lefttoolbarpinned" : 0,
		"toptoolbarpinned" : 0,
		"righttoolbarpinned" : 0,
		"bottomtoolbarpinned" : 0,
		"toolbars_unpinned_last_save" : 0,
		"tallnewobj" : 0,
		"boxanimatetime" : 200,
		"enablehscroll" : 1,
		"enablevscroll" : 1,
		"devicewidth" : 0.0,
		"description" : "",
		"digest" : "",
		"tags" : "",
		"style" : "",
		"subpatcher_template" : "",
		"assistshowspatchername" : 0,
		"boxes" : [ 			{
				"box" : 				{
					"fontname" : "Arial",
					"fontsize" : 13.0,
					"hidden" : 1,
					"id" : "obj-12",
					"maxclass" : "message",
					"numinlets" : 2,
					"numoutlets" : 1,
					"outlettype" : [ "" ],
					"patching_rect" : [ 1061.0, 72.0, 48.0, 23.0 ],
					"text" : "set $1"
				}

			}
, 			{
				"box" : 				{
					"fontname" : "Arial",
					"fontsize" : 13.0,
					"hidden" : 1,
					"id" : "obj-13",
					"maxclass" : "message",
					"numinlets" : 2,
					"numoutlets" : 1,
					"outlettype" : [ "" ],
					"patching_rect" : [ 981.0, 72.0, 48.0, 23.0 ],
					"text" : "set $1"
				}

			}
, 			{
				"box" : 				{
					"fontname" : "Arial",
					"fontsize" : 13.0,
					"hidden" : 1,
					"id" : "obj-14",
					"maxclass" : "message",
					"numinlets" : 2,
					"numoutlets" : 1,
					"outlettype" : [ "" ],
					"patching_rect" : [ 886.0, 72.0, 48.0, 23.0 ],
					"text" : "set $1"
				}

			}
, 			{
				"box" : 				{
					"bubble" : 1,
					"bubbleside" : 2,
					"fontname" : "Arial",
					"fontsize" : 13.0,
					"id" : "obj-71",
					"maxclass" : "comment",
					"numinlets" : 1,
					"numoutlets" : 0,
					"patching_rect" : [ 1049.0, 57.0, 73.0, 40.0 ],
					"text" : "set Q or S"
				}

			}
, 			{
				"box" : 				{
					"fontname" : "Arial",
					"fontsize" : 13.0,
					"format" : 6,
					"id" : "obj-72",
					"maxclass" : "flonum",
					"numinlets" : 1,
					"numoutlets" : 2,
					"outlettype" : [ "", "bang" ],
					"parameter_enable" : 0,
					"patching_rect" : [ 1061.0, 107.0, 55.0, 23.0 ]
				}

			}
, 			{
				"box" : 				{
					"fontname" : "Arial",
					"fontsize" : 13.0,
					"format" : 6,
					"id" : "obj-74",
					"maxclass" : "flonum",
					"numinlets" : 1,
					"numoutlets" : 2,
					"outlettype" : [ "", "bang" ],
					"parameter_enable" : 0,
					"patching_rect" : [ 981.0, 107.0, 55.0, 23.0 ]
				}

			}
, 			{
				"box" : 				{
					"fontname" : "Arial",
					"fontsize" : 13.0,
					"format" : 6,
					"id" : "obj-75",
					"maxclass" : "flonum",
					"numinlets" : 1,
					"numoutlets" : 2,
					"outlettype" : [ "", "bang" ],
					"parameter_enable" : 0,
					"patching_rect" : [ 891.0, 107.0, 57.0, 23.0 ]
				}

			}
, 			{
				"box" : 				{
					"fontface" : 0,
					"id" : "obj-15",
					"linmarkers" : [ 0.0, 11025.0, 16537.5 ],
					"logmarkers" : [ 0.0, 100.0, 1000.0, 10000.0 ],
					"maxclass" : "filtergraph~",
					"nfilters" : 1,
					"numinlets" : 8,
					"numoutlets" : 7,
					"outlettype" : [ "list", "float", "float", "float", "float", "list", "int" ],
					"parameter_enable" : 0,
					"patching_rect" : [ 747.0, 145.0, 360.0, 155.0 ],
					"setfilter" : [ 0, 2, 1, 0, 0, 284.703094482421875, 0.825062394142151, 0.790000021457672, 0.0, 0.0, 0.0, 0.0, 0.0, 0.0 ],
					"varname" : "filtergraph~"
				}

			}
, 			{
				"box" : 				{
					"bubble" : 1,
					"bubbleside" : 2,
					"fontname" : "Arial",
					"fontsize" : 13.0,
					"id" : "obj-82",
					"linecount" : 2,
					"maxclass" : "comment",
					"numinlets" : 1,
					"numoutlets" : 0,
					"patching_rect" : [ 875.0, 42.0, 88.25, 55.0 ],
					"text" : "set cutoff or center freq"
				}

			}
, 			{
				"box" : 				{
					"bubble" : 1,
					"bubbleside" : 2,
					"fontname" : "Arial",
					"fontsize" : 13.0,
					"id" : "obj-83",
					"maxclass" : "comment",
					"numinlets" : 1,
					"numoutlets" : 0,
					"patching_rect" : [ 976.0, 57.0, 59.0, 40.0 ],
					"text" : "set gain"
				}

			}
, 			{
				"box" : 				{
					"bubble" : 1,
					"bubbleside" : 2,
					"fontname" : "Arial",
					"fontsize" : 13.0,
					"id" : "obj-85",
					"maxclass" : "comment",
					"numinlets" : 1,
					"numoutlets" : 0,
					"patching_rect" : [ 729.0, 42.0, 118.0, 40.0 ],
					"text" : "set filter response"
				}

			}
, 			{
				"box" : 				{
					"fontname" : "Arial",
					"fontsize" : 13.0,
					"id" : "obj-16",
					"maxclass" : "newobj",
					"numinlets" : 6,
					"numoutlets" : 1,
					"outlettype" : [ "signal" ],
					"patching_rect" : [ 492.0, 232.0, 92.0, 23.0 ],
					"text" : "biquad~"
				}

			}
, 			{
				"box" : 				{
					"attr" : "edit_mode",
					"fontface" : 0,
					"fontname" : "Arial",
					"fontsize" : 13.0,
					"id" : "obj-17",
					"lock" : 1,
					"maxclass" : "attrui",
					"numinlets" : 1,
					"numoutlets" : 1,
					"orientation" : 1,
					"outlettype" : [ "" ],
					"parameter_enable" : 0,
					"patching_rect" : [ 747.0, 94.0, 83.0, 46.0 ],
					"text_width" : 83.0
				}

			}
, 			{
				"box" : 				{
					"id" : "obj-9",
					"maxclass" : "newobj",
					"numinlets" : 1,
					"numoutlets" : 1,
					"outlettype" : [ "multichannelsignal" ],
					"patching_rect" : [ 66.0, 188.0, 65.0, 22.0 ],
					"text" : "mc.dup~ 2"
				}

			}
, 			{
				"box" : 				{
					"color" : [ 0.501961, 0.501961, 0.501961, 1.0 ],
					"id" : "obj-8",
					"maxclass" : "newobj",
					"numinlets" : 2,
					"numoutlets" : 2,
					"outlettype" : [ "", "" ],
					"patching_rect" : [ 411.0, 64.0, 94.0, 22.0 ],
					"text" : "mvc.device stac"
				}

			}
, 			{
				"box" : 				{
					"id" : "obj-6",
					"maxclass" : "scope~",
					"numinlets" : 2,
					"numoutlets" : 0,
					"patching_rect" : [ 125.0, 296.0, 176.0, 131.0 ]
				}

			}
, 			{
				"box" : 				{
					"id" : "obj-5",
					"lastchannelcount" : 2,
					"maxclass" : "mc.live.gain~",
					"numinlets" : 1,
					"numoutlets" : 4,
					"orientation" : 1,
					"outlettype" : [ "multichannelsignal", "", "float", "list" ],
					"parameter_enable" : 1,
					"patching_rect" : [ 66.0, 248.0, 175.0, 36.0 ],
					"saved_attribute_attributes" : 					{
						"valueof" : 						{
							"parameter_longname" : "mc.live.gain~",
							"parameter_mmax" : 6.0,
							"parameter_mmin" : -70.0,
							"parameter_modmode" : 3,
							"parameter_shortname" : "mc.live.gain~",
							"parameter_type" : 0,
							"parameter_unitstyle" : 4
						}

					}
,
					"showname" : 0,
					"varname" : "mc.live.gain~"
				}

			}
, 			{
				"box" : 				{
					"id" : "obj-3",
					"maxclass" : "mc.ezdac~",
					"numinlets" : 1,
					"numoutlets" : 0,
					"patching_rect" : [ 66.0, 292.0, 45.0, 45.0 ]
				}

			}
, 			{
				"box" : 				{
					"bgmode" : 0,
					"border" : 0,
					"clickthrough" : 0,
					"enablehscroll" : 0,
					"enablevscroll" : 0,
					"id" : "obj-1",
					"lockeddragscroll" : 0,
					"lockedsize" : 0,
					"maxclass" : "bpatcher",
					"name" : "demosound.maxpat",
					"numinlets" : 0,
					"numoutlets" : 1,
					"offset" : [ 0.0, 0.0 ],
					"outlettype" : [ "signal" ],
					"patching_rect" : [ 66.0, 64.0, 227.0, 95.0 ],
					"viewvisibility" : 1
				}

			}
, 			{
				"box" : 				{
					"id" : "obj-81",
					"maxclass" : "message",
					"numinlets" : 2,
					"numoutlets" : 1,
					"outlettype" : [ "" ],
					"patching_rect" : [ 340.0, 74.0, 30.0, 22.0 ],
					"text" : "GUI"
				}

			}
, 			{
				"box" : 				{
					"id" : "obj-11",
					"maxclass" : "newobj",
					"numinlets" : 2,
					"numoutlets" : 2,
					"outlettype" : [ "", "" ],
					"patching_rect" : [ 340.0, 248.0, 77.0, 22.0 ],
					"text" : "route latency"
				}

			}
, 			{
				"box" : 				{
					"id" : "obj-87",
					"maxclass" : "newobj",
					"numinlets" : 1,
					"numoutlets" : 0,
					"patching_rect" : [ 340.0, 278.0, 132.0, 22.0 ],
					"text" : "stac.mc.ChainDelay 32"
				}

			}
, 			{
				"box" : 				{
					"id" : "obj-10",
					"maxclass" : "newobj",
					"numinlets" : 1,
					"numoutlets" : 1,
					"outlettype" : [ "" ],
					"patching_rect" : [ 340.0, 278.0, 100.0, 22.0 ]
				}

			}
, 			{
				"box" : 				{
					"id" : "obj-79",
					"maxclass" : "newobj",
					"numinlets" : 2,
					"numoutlets" : 2,
					"outlettype" : [ "", "" ],
					"patching_rect" : [ 340.0, 248.0, 77.0, 22.0 ],
					"text" : "route latency"
				}

			}
, 			{
				"box" : 				{
					"activebgcolor" : [ 0.647, 0.647, 0.647, 1.0 ],
					"activebgoncolor" : [ 1.0, 0.71, 0.196, 1.0 ],
					"hint" : "no target",
					"id" : "obj-7",
					"maxclass" : "live.toggle",
					"numinlets" : 1,
					"numoutlets" : 1,
					"outlettype" : [ "" ],
					"parameter_enable" : 1,
					"patching_rect" : [ 382.0, 115.0, 23.0, 23.0 ],
					"rounded" : 204.590000000000003,
					"saved_attribute_attributes" : 					{
						"activebgcolor" : 						{
							"expression" : ""
						}
,
						"activebgoncolor" : 						{
							"expression" : ""
						}
,
						"bgcolor" : 						{
							"expression" : ""
						}
,
						"bgoncolor" : 						{
							"expression" : ""
						}
,
						"bordercolor" : 						{
							"expression" : ""
						}
,
						"focusbordercolor" : 						{
							"expression" : ""
						}
,
						"inactivelcdcolor" : 						{
							"expression" : ""
						}
,
						"lcdcolor" : 						{
							"expression" : ""
						}
,
						"valueof" : 						{
							"parameter_enum" : [ "off", "on" ],
							"parameter_longname" : "live.toggle[6]",
							"parameter_mmax" : 1,
							"parameter_modmode" : 0,
							"parameter_shortname" : "live.toggle",
							"parameter_type" : 2
						}

					}
,
					"varname" : "live.toggle"
				}

			}
, 			{
				"box" : 				{
					"id" : "obj-4",
					"maxclass" : "message",
					"numinlets" : 2,
					"numoutlets" : 1,
					"outlettype" : [ "" ],
					"patching_rect" : [ 382.0, 144.0, 81.0, 22.0 ],
					"text" : "param ON $1"
				}

			}
, 			{
				"box" : 				{
					"color" : [ 0.501961, 0.501961, 0.501961, 1.0 ],
					"id" : "obj-80",
					"maxclass" : "newobj",
					"numinlets" : 2,
					"numoutlets" : 2,
					"outlettype" : [ "multichannelsignal", "" ],
					"patching_rect" : [ 66.0, 224.0, 293.0, 22.0 ],
					"text" : "stac.mc.spectral.novelty~ stac DAEX-SpectralNovelty",
					"varname" : "stac.mc.spectral.NR~"
				}

			}
 ],
		"lines" : [ 			{
				"patchline" : 				{
					"destination" : [ "obj-16", 0 ],
					"source" : [ "obj-1", 0 ]
				}

			}
, 			{
				"patchline" : 				{
					"destination" : [ "obj-72", 0 ],
					"hidden" : 1,
					"source" : [ "obj-12", 0 ]
				}

			}
, 			{
				"patchline" : 				{
					"destination" : [ "obj-74", 0 ],
					"hidden" : 1,
					"source" : [ "obj-13", 0 ]
				}

			}
, 			{
				"patchline" : 				{
					"destination" : [ "obj-75", 0 ],
					"hidden" : 1,
					"source" : [ "obj-14", 0 ]
				}

			}
, 			{
				"patchline" : 				{
					"destination" : [ "obj-12", 0 ],
					"hidden" : 1,
					"source" : [ "obj-15", 3 ]
				}

			}
, 			{
				"patchline" : 				{
					"destination" : [ "obj-13", 0 ],
					"hidden" : 1,
					"source" : [ "obj-15", 2 ]
				}

			}
, 			{
				"patchline" : 				{
					"destination" : [ "obj-14", 0 ],
					"hidden" : 1,
					"source" : [ "obj-15", 1 ]
				}

			}
, 			{
				"patchline" : 				{
					"destination" : [ "obj-16", 0 ],
					"source" : [ "obj-15", 0 ]
				}

			}
, 			{
				"patchline" : 				{
					"destination" : [ "obj-9", 0 ],
					"source" : [ "obj-16", 0 ]
				}

			}
, 			{
				"patchline" : 				{
					"destination" : [ "obj-15", 0 ],
					"source" : [ "obj-17", 0 ]
				}

			}
, 			{
				"patchline" : 				{
					"destination" : [ "obj-80", 1 ],
					"source" : [ "obj-4", 0 ]
				}

			}
, 			{
				"patchline" : 				{
					"destination" : [ "obj-3", 0 ],
					"order" : 1,
					"source" : [ "obj-5", 0 ]
				}

			}
, 			{
				"patchline" : 				{
					"destination" : [ "obj-6", 0 ],
					"order" : 0,
					"source" : [ "obj-5", 0 ]
				}

			}
, 			{
				"patchline" : 				{
					"destination" : [ "obj-4", 0 ],
					"source" : [ "obj-7", 0 ]
				}

			}
, 			{
				"patchline" : 				{
					"destination" : [ "obj-15", 7 ],
					"source" : [ "obj-72", 0 ]
				}

			}
, 			{
				"patchline" : 				{
					"destination" : [ "obj-15", 6 ],
					"source" : [ "obj-74", 0 ]
				}

			}
, 			{
				"patchline" : 				{
					"destination" : [ "obj-15", 5 ],
					"source" : [ "obj-75", 0 ]
				}

			}
, 			{
				"patchline" : 				{
					"destination" : [ "obj-87", 0 ],
					"source" : [ "obj-79", 0 ]
				}

			}
, 			{
				"patchline" : 				{
					"destination" : [ "obj-5", 0 ],
					"source" : [ "obj-80", 0 ]
				}

			}
, 			{
				"patchline" : 				{
					"destination" : [ "obj-79", 0 ],
					"source" : [ "obj-80", 1 ]
				}

			}
, 			{
				"patchline" : 				{
					"destination" : [ "obj-80", 1 ],
					"source" : [ "obj-81", 0 ]
				}

			}
, 			{
				"patchline" : 				{
					"destination" : [ "obj-80", 0 ],
					"source" : [ "obj-9", 0 ]
				}

			}
 ],
		"parameters" : 		{
			"obj-1::obj-21::obj-6" : [ "live.tab[3]", "live.tab[1]", 0 ],
			"obj-1::obj-35" : [ "[5]", "Level", 0 ],
			"obj-5" : [ "mc.live.gain~", "mc.live.gain~", 0 ],
			"obj-7" : [ "live.toggle[6]", "live.toggle", 0 ],
			"obj-80::obj-5::obj-25::obj-61::obj-20.1::obj-19::obj-8::obj-7" : [ "live.toggle[2]", "live.toggle", 0 ],
			"obj-80::obj-5::obj-25::obj-61::obj-20.1::obj-5::obj-5::obj-8::obj-7" : [ "live.toggle[1]", "live.toggle", 0 ],
			"parameterbanks" : 			{
				"0" : 				{
					"index" : 0,
					"name" : "",
					"parameters" : [ "-", "-", "-", "-", "-", "-", "-", "-" ]
				}

			}
,
			"parameter_overrides" : 			{
				"obj-80::obj-5::obj-25::obj-61::obj-20.1::obj-19::obj-8::obj-7" : 				{
					"parameter_longname" : "live.toggle[2]"
				}

			}
,
			"inherited_shortname" : 1
		}
,
		"autosave" : 0
	}

}
